<svg width="197" height="27" viewBox="0 0 197 27" fill="none" xmlns="http://www.w3.org/2000/svg">
<path d="M8.69582 16.9655C8.568 16.9426 8.44599 16.8949 8.33677 16.825C8.22755 16.7552 8.13327 16.6646 8.05933 16.5585C7.86912 16.2314 8.1837 16.0061 8.33734 15.7735L16.3336 3.78707C17.0067 2.7767 17.2042 2.74035 17.9724 3.67077C18.9161 4.81925 19.8306 5.99681 20.7744 7.13803C21.0963 7.53055 21.0817 7.81403 20.6793 8.12659C16.953 11.0051 13.2317 13.886 9.5152 16.7693C9.40806 16.8707 9.27589 16.9423 9.13203 16.9767C8.98817 17.0112 8.8377 17.0073 8.69582 16.9655Z" fill="#282560"/>
<path d="M47.5227 2.16148C47.1564 1.73982 46.7127 1.39152 46.2153 1.13522C45.6165 0.769925 44.9705 0.48723 44.2953 0.294873C43.3712 0.0590718 42.4165 -0.0362044 41.4638 0.0122789C40.5909 0.0269261 39.7198 0.0989709 38.8564 0.227943C37.4548 0.450074 36.0785 0.808758 34.7474 1.29882C33.4081 1.80749 32.1073 2.41142 30.855 3.10594C30.5711 3.24724 29.6373 3.73062 28.4494 4.42223C26.4845 5.57492 24.5346 6.89865 24.4674 6.94327C21.86 8.62396 19.7084 10.1113 18.0648 11.3309C15.2482 13.3983 13.1265 15.1385 11.3409 16.5961C9.78695 17.8752 8.68125 18.8271 7.11982 20.1806C5.31932 21.7497 2.87632 23.884 0 26.472C0.00216311 26.5017 0.00216311 26.5315 0 26.5612C0.00390174 26.5983 0.00390174 26.6357 0 26.6728C0.54538 26.6728 1.3896 26.6728 2.42806 26.7472C3.69065 26.8066 4.87106 26.9033 4.86359 26.9033L4.27339 26.8513L6.29802 27C9.61512 23.7204 12.4989 21.0507 14.7028 19.0056C17.8332 16.1499 20.0745 14.0974 23.2496 11.5689C23.9967 10.9591 25.0651 10.2154 26.7311 8.86937C27.6276 8.1257 28.046 7.77618 28.9201 7.13662C30.1378 6.23678 31.1091 5.64928 31.5573 5.34438C32.4613 4.78663 33.1561 4.40736 33.694 4.11733C34.8912 3.41064 36.1398 2.79415 37.4295 2.27303C38.7752 1.75235 40.1943 1.44374 41.6356 1.35832C42.572 1.31591 43.5102 1.38583 44.4298 1.56655C45.0234 1.65428 45.5987 1.83763 46.1331 2.10942C46.4878 2.30445 46.8083 2.55562 47.082 2.85309C47.1793 2.96701 47.2667 3.08891 47.3434 3.21749C47.3944 3.29455 47.437 3.37682 47.4704 3.4629C47.5153 3.58932 47.4704 3.64882 47.5601 3.71575C47.5858 3.74726 47.6175 3.77335 47.6534 3.79251C47.6893 3.81166 47.7287 3.82349 47.7693 3.8273C47.8461 3.81662 47.9158 3.77662 47.9635 3.71575C48.0158 3.64138 48.0084 3.55214 47.9635 3.37366C47.954 3.26102 47.9366 3.1492 47.9112 3.03901C47.8767 2.91058 47.8292 2.786 47.7693 2.66717C47.6995 2.49289 47.6171 2.32388 47.5227 2.16148Z" fill="#0C9895"/>
<path d="M47.5227 2.16148C47.1564 1.73982 46.7127 1.39152 46.2153 1.13522C45.6165 0.769925 44.9705 0.48723 44.2953 0.294873C43.3712 0.0590718 42.4165 -0.0362044 41.4638 0.0122789C40.5909 0.0269261 39.7198 0.0989709 38.8564 0.227943C37.4548 0.450074 36.0785 0.808758 34.7474 1.29882C33.4081 1.80749 32.1073 2.41142 30.855 3.10594C30.5711 3.24724 29.6373 3.73062 28.4494 4.42223C26.4845 5.57492 24.5346 6.89865 24.4674 6.94327C21.86 8.62396 19.7084 10.1113 18.0648 11.3309C15.2482 13.3983 13.1265 15.1385 11.3409 16.5961C9.78695 17.8752 8.68125 18.8271 7.11982 20.1806C5.31932 21.7497 2.87632 23.884 0 26.472C0.00216311 26.5017 0.00216311 26.5315 0 26.5612C0.00390174 26.5983 0.00390174 26.6357 0 26.6728C0.54538 26.6728 1.3896 26.6728 2.42806 26.7472C3.69065 26.8066 4.87106 26.9033 4.86359 26.9033L4.27339 26.8513L6.29802 27C9.61512 23.7204 12.4989 21.0507 14.7028 19.0056C17.8332 16.1499 20.0745 14.0974 23.2496 11.5689C23.9967 10.9591 25.0651 10.2154 26.7311 8.86937C27.6276 8.1257 28.046 7.77618 28.9201 7.13662C30.1378 6.23678 31.1091 5.64928 31.5573 5.34438C32.4613 4.78663 33.1561 4.40736 33.694 4.11733C34.8912 3.41064 36.1398 2.79415 37.4295 2.27303C38.7752 1.75235 40.1943 1.44374 41.6356 1.35832C42.572 1.31591 43.5102 1.38583 44.4298 1.56655C45.0234 1.65428 45.5987 1.83763 46.1331 2.10942C46.4878 2.30445 46.8083 2.55562 47.082 2.85309C47.1793 2.96701 47.2667 3.08891 47.3434 3.21749C47.3944 3.29455 47.437 3.37682 47.4704 3.4629C47.5153 3.58932 47.4704 3.64882 47.5601 3.71575C47.5858 3.74726 47.6175 3.77335 47.6534 3.79251C47.6893 3.81166 47.7287 3.82349 47.7693 3.8273C47.8461 3.81662 47.9158 3.77662 47.9635 3.71575C48.0158 3.64138 48.0084 3.55214 47.9635 3.37366C47.954 3.26102 47.9366 3.1492 47.9112 3.03901C47.8767 2.91058 47.8292 2.786 47.7693 2.66717C47.6995 2.49289 47.6171 2.32388 47.5227 2.16148Z" fill="#0C9895"/>
<path d="M25.7625 20.9618C24.9699 21.1292 24.3419 20.7361 23.7661 19.9938C22.6596 18.5382 21.5231 17.1845 20.2969 15.8308C19.8632 15.3505 19.9081 15.1394 20.409 14.7683C21.3661 14.0405 22.2932 13.269 23.1755 12.4539C23.7213 11.9517 24.0652 12.0754 24.4989 12.563C25.4933 13.6911 26.5251 14.7901 27.5345 15.9109C27.6856 16.1032 27.8888 16.2506 28.1212 16.3368C28.3537 16.4229 28.6062 16.4443 28.8504 16.3985C32.0954 16.0128 35.3553 15.6707 38.6152 15.3287C38.7147 15.3359 38.8147 15.3359 38.9143 15.3287C39.0677 15.3108 39.2159 15.2632 39.3502 15.1888C39.4844 15.1143 39.6021 15.0145 39.6961 14.8951C39.7902 14.7758 39.8587 14.6393 39.8978 14.4938C39.9369 14.3483 39.9457 14.1966 39.9236 14.0477C39.8638 13.3709 39.3255 13.2399 38.7273 13.3199C36.3123 13.6256 33.8823 13.9022 31.4748 14.2588C31.1998 14.3291 30.9087 14.3104 30.6456 14.2053C30.3826 14.1003 30.1618 13.9146 30.0168 13.6766C29.5158 12.9488 28.985 12.2792 28.4317 11.6096C27.9906 11.0711 28.1551 10.8818 28.7756 10.8236C30.8019 10.6053 32.8281 10.3506 34.8543 10.0958C36.1104 9.95027 37.374 9.81199 38.6376 9.68099C38.8047 9.67124 38.968 9.62808 39.1172 9.5542C39.2664 9.48032 39.3984 9.37731 39.5049 9.25159C39.7367 8.96775 40.0134 8.66208 39.8339 8.26907C39.6545 7.87606 39.2731 7.84695 38.8843 7.89062L34.3982 8.36369C33.0973 8.50197 31.8038 8.64752 30.5103 8.77125C30.3114 8.79031 30.1108 8.76027 29.9271 8.68391C29.6654 8.56019 29.2766 8.48741 29.2317 8.17446C29.1869 7.86151 29.5532 7.77417 29.7701 7.62862C32.4533 5.87635 35.3237 4.41222 38.3311 3.26186C40.1778 2.53407 42.234 3.36375 43.6845 5.24874C44.2632 5.98022 44.5924 6.8696 44.6259 7.79229C44.6594 8.71498 44.3956 9.62477 43.8714 10.3942C43.4677 10.9546 43.4228 11.2312 43.9312 11.777C46.0995 14.1351 44.806 17.9414 41.5162 19.0549C40.2957 19.3851 39.0424 19.5877 37.7778 19.659C33.83 20.1102 29.8673 20.5251 25.7699 20.969" fill="#282560"/>
<path d="M48.418 20.133C48.836 19.069 49.2793 17.9353 49.748 16.732C50.2167 15.516 50.6853 14.3127 51.154 13.122C51.6353 11.9187 52.0977 10.7597 52.541 9.645C52.997 8.51767 53.4023 7.50433 53.757 6.605C53.9723 6.50367 54.2067 6.42767 54.46 6.377C54.7133 6.32633 54.9667 6.301 55.22 6.301L60.255 19.924C60.141 19.9873 59.9827 20.038 59.78 20.076C59.5773 20.1267 59.3367 20.152 59.058 20.152C58.9947 20.152 58.9313 20.152 58.868 20.152C58.8173 20.152 58.7603 20.1457 58.697 20.133L57.215 16.105H51.135C50.6917 17.4603 50.299 18.7523 49.957 19.981C49.843 20.0443 49.691 20.0887 49.501 20.114C49.3237 20.152 49.14 20.171 48.95 20.171C48.836 20.171 48.7347 20.1647 48.646 20.152C48.5573 20.152 48.4813 20.1457 48.418 20.133ZM54.156 7.707C53.7127 8.85967 53.2567 10.0757 52.788 11.355C52.332 12.6217 51.8823 13.901 51.439 15.193H56.892L54.156 7.707ZM62.9855 6.928C63.5175 6.738 64.1572 6.55433 64.9045 6.377C65.6518 6.19967 66.4688 6.111 67.3555 6.111C68.2168 6.111 68.9388 6.206 69.5215 6.396C70.1042 6.586 70.5728 6.833 70.9275 7.137C71.2822 7.441 71.5355 7.78933 71.6875 8.182C71.8395 8.57467 71.9155 8.96733 71.9155 9.36C71.9155 9.80333 71.8395 10.215 71.6875 10.595C71.5482 10.9623 71.3582 11.2917 71.1175 11.583C70.8768 11.8617 70.5982 12.1023 70.2815 12.305C69.9648 12.5077 69.6292 12.666 69.2745 12.78C70.4018 12.9953 71.2378 13.3943 71.7825 13.977C72.3272 14.5597 72.5995 15.269 72.5995 16.105C72.5995 16.751 72.4475 17.34 72.1435 17.872C71.8395 18.3913 71.4152 18.8347 70.8705 19.202C70.3258 19.5693 69.6735 19.848 68.9135 20.038C68.1662 20.2407 67.3492 20.342 66.4625 20.342C65.8165 20.342 65.2022 20.3103 64.6195 20.247C64.0368 20.1837 63.4922 20.1013 62.9855 20V6.928ZM66.7665 13.464C66.2978 13.464 65.8798 13.4767 65.5125 13.502C65.1578 13.5147 64.8348 13.5463 64.5435 13.597V19.069C64.9108 19.183 65.3288 19.278 65.7975 19.354C66.2788 19.4173 66.7412 19.449 67.1845 19.449C67.7292 19.449 68.2232 19.3857 68.6665 19.259C69.1225 19.1323 69.5152 18.9487 69.8445 18.708C70.1738 18.4547 70.4272 18.1443 70.6045 17.777C70.7945 17.397 70.8895 16.9537 70.8895 16.447C70.8895 15.8897 70.7755 15.421 70.5475 15.041C70.3195 14.661 70.0092 14.357 69.6165 14.129C69.2365 13.8883 68.7995 13.7173 68.3055 13.616C67.8115 13.5147 67.2985 13.464 66.7665 13.464ZM67.4695 12.59C67.8622 12.5773 68.2295 12.5077 68.5715 12.381C68.9135 12.2417 69.2048 12.058 69.4455 11.83C69.6988 11.5893 69.8952 11.3043 70.0345 10.975C70.1865 10.633 70.2625 10.2467 70.2625 9.816C70.2625 8.91667 69.9712 8.22 69.3885 7.726C68.8185 7.232 67.9255 6.985 66.7095 6.985C66.2915 6.985 65.8988 7.01033 65.5315 7.061C65.1642 7.099 64.8348 7.14967 64.5435 7.213V12.723C64.8728 12.685 65.2528 12.6533 65.6835 12.628C66.1142 12.6027 66.6145 12.59 67.1845 12.59H67.4695ZM82.5977 19.829C82.395 19.943 82.1543 20.019 81.8757 20.057C81.6097 20.1077 81.331 20.133 81.0397 20.133V6.643C81.4703 6.415 81.9897 6.301 82.5977 6.301V19.829ZM93.5172 14.072C93.5172 12.9953 93.2955 12.21 92.8522 11.716C92.4088 11.2093 91.7818 10.956 90.9712 10.956C90.6798 10.956 90.3885 11.013 90.0972 11.127C89.8185 11.2283 89.5462 11.3677 89.2802 11.545C89.0268 11.7223 88.7862 11.9313 88.5582 12.172C88.3302 12.4 88.1275 12.6407 87.9502 12.894V19.848C87.7728 19.9493 87.5385 20.019 87.2472 20.057C86.9685 20.1077 86.7025 20.133 86.4492 20.133V10.405C86.8672 10.1897 87.3358 10.082 87.8552 10.082V11.963C88.0198 11.7477 88.2288 11.5197 88.4822 11.279C88.7482 11.0257 89.0395 10.7977 89.3562 10.595C89.6855 10.3923 90.0402 10.2277 90.4202 10.101C90.8128 9.96167 91.2308 9.892 91.6742 9.892C92.7002 9.892 93.5108 10.2023 94.1062 10.823C94.7142 11.4437 95.0182 12.3303 95.0182 13.483V19.848C94.8408 19.9493 94.6065 20.019 94.3152 20.057C94.0365 20.1077 93.7705 20.133 93.5172 20.133V14.072ZM97.1806 10.861C97.2946 10.7217 97.4593 10.595 97.6746 10.481C97.9026 10.3543 98.1433 10.291 98.3966 10.291H98.8906V9.759C98.8906 9.17633 98.9919 8.61267 99.1946 8.068C99.3973 7.52333 99.6823 7.042 100.05 6.624C100.43 6.206 100.873 5.87667 101.38 5.636C101.899 5.38267 102.475 5.256 103.109 5.256C103.539 5.256 103.9 5.313 104.192 5.427C104.496 5.541 104.743 5.68667 104.933 5.864C105.123 6.02867 105.262 6.206 105.351 6.396C105.452 6.57333 105.509 6.738 105.522 6.89C105.458 7.02933 105.313 7.175 105.085 7.327C104.857 7.479 104.616 7.56767 104.363 7.593C104.337 7.46633 104.293 7.32067 104.23 7.156C104.166 6.97867 104.065 6.814 103.926 6.662C103.786 6.49733 103.596 6.358 103.356 6.244C103.128 6.13 102.843 6.073 102.501 6.073C102.222 6.073 101.956 6.11733 101.703 6.206C101.449 6.29467 101.221 6.44033 101.019 6.643C100.829 6.84567 100.677 7.10533 100.563 7.422C100.449 7.726 100.392 8.09333 100.392 8.524V10.291H103.85C103.837 10.5063 103.761 10.69 103.622 10.842C103.495 10.9813 103.356 11.051 103.204 11.051H100.392V19.848C100.214 19.9493 99.9799 20.019 99.6886 20.057C99.4099 20.1077 99.1439 20.133 98.8906 20.133V11.051H97.1806V10.861ZM106.194 14.699C106.194 15.497 106.289 16.1937 106.479 16.789C106.682 17.3843 106.942 17.8847 107.258 18.29C107.588 18.6827 107.961 18.9803 108.379 19.183C108.81 19.3857 109.26 19.487 109.728 19.487C110.742 19.487 111.514 19.1513 112.046 18.48C112.578 17.796 112.844 16.77 112.844 15.402C112.844 14.7433 112.768 14.129 112.616 13.559C112.464 12.989 112.236 12.495 111.932 12.077C111.641 11.659 111.28 11.3297 110.849 11.089C110.419 10.8483 109.925 10.728 109.367 10.728C108.962 10.728 108.569 10.804 108.189 10.956C107.809 11.108 107.474 11.3487 107.182 11.678C106.891 11.9947 106.65 12.4063 106.46 12.913C106.283 13.407 106.194 14.0023 106.194 14.699ZM104.598 15.288C104.598 14.5153 104.738 13.7997 105.016 13.141C105.295 12.4697 105.669 11.8997 106.137 11.431C106.619 10.9497 107.176 10.576 107.809 10.31C108.455 10.0313 109.139 9.892 109.861 9.892C110.647 9.892 111.324 10.025 111.894 10.291C112.477 10.557 112.952 10.9117 113.319 11.355C113.699 11.7983 113.978 12.3177 114.155 12.913C114.345 13.5083 114.44 14.1353 114.44 14.794C114.44 15.5667 114.32 16.2887 114.079 16.96C113.839 17.6313 113.49 18.2203 113.034 18.727C112.591 19.221 112.046 19.6137 111.4 19.905C110.754 20.1963 110.02 20.342 109.196 20.342C108.588 20.342 108.006 20.228 107.448 20C106.891 19.772 106.397 19.4427 105.966 19.012C105.548 18.5813 105.213 18.0557 104.959 17.435C104.719 16.8017 104.598 16.086 104.598 15.288ZM115.772 10.861C115.873 10.7217 116.031 10.595 116.247 10.481C116.475 10.3543 116.722 10.291 116.988 10.291H117.596V7.555C117.798 7.39033 118.033 7.27 118.299 7.194C118.577 7.10533 118.843 7.061 119.097 7.061V10.291H122.821C122.808 10.5063 122.745 10.69 122.631 10.842C122.529 10.9813 122.396 11.051 122.232 11.051H119.097V17.283C119.097 17.6883 119.141 18.0177 119.23 18.271C119.331 18.5117 119.464 18.7017 119.629 18.841C119.793 18.9803 119.983 19.0753 120.199 19.126C120.414 19.1767 120.636 19.202 120.864 19.202C121.282 19.202 121.63 19.1197 121.909 18.955C122.187 18.7903 122.415 18.6193 122.593 18.442C122.77 18.4927 122.884 18.6003 122.935 18.765C122.871 18.8663 122.77 18.9993 122.631 19.164C122.491 19.3287 122.308 19.4933 122.08 19.658C121.852 19.81 121.579 19.943 121.263 20.057C120.946 20.171 120.591 20.228 120.199 20.228C119.844 20.228 119.508 20.1837 119.192 20.095C118.875 20.0063 118.596 19.8607 118.356 19.658C118.128 19.4553 117.944 19.183 117.805 18.841C117.665 18.499 117.596 18.0747 117.596 17.568V11.051H115.772V10.861ZM125.842 15.098C125.88 15.782 126 16.3837 126.203 16.903C126.418 17.4097 126.69 17.834 127.02 18.176C127.349 18.518 127.729 18.7777 128.16 18.955C128.603 19.1197 129.072 19.202 129.566 19.202C130.186 19.202 130.718 19.1197 131.162 18.955C131.618 18.7903 132.029 18.5307 132.397 18.176C132.574 18.214 132.694 18.3343 132.758 18.537C132.669 18.6763 132.523 18.8473 132.321 19.05C132.131 19.2527 131.871 19.449 131.542 19.639C131.225 19.829 130.839 19.9873 130.383 20.114C129.939 20.2533 129.42 20.323 128.825 20.323C128.191 20.323 127.602 20.209 127.058 19.981C126.513 19.753 126.038 19.4237 125.633 18.993C125.227 18.5623 124.904 18.0303 124.664 17.397C124.436 16.7637 124.322 16.048 124.322 15.25C124.322 14.5153 124.448 13.825 124.702 13.179C124.955 12.5203 125.297 11.9503 125.728 11.469C126.171 10.9877 126.684 10.6077 127.267 10.329C127.862 10.0377 128.495 9.892 129.167 9.892C129.889 9.892 130.484 10.0123 130.953 10.253C131.421 10.4937 131.789 10.804 132.055 11.184C132.333 11.564 132.523 11.982 132.625 12.438C132.739 12.894 132.796 13.3373 132.796 13.768C132.694 13.92 132.555 14.053 132.378 14.167C132.213 14.281 132.029 14.3697 131.827 14.433L125.842 15.098ZM128.673 10.747C128.28 10.747 127.913 10.8167 127.571 10.956C127.229 11.0953 126.931 11.3107 126.678 11.602C126.424 11.8933 126.215 12.267 126.051 12.723C125.899 13.179 125.816 13.73 125.804 14.376L131.162 13.825C131.174 13.7617 131.181 13.6983 131.181 13.635C131.181 13.5717 131.181 13.5147 131.181 13.464C131.181 13.0713 131.13 12.7103 131.029 12.381C130.927 12.0517 130.769 11.7667 130.554 11.526C130.351 11.2853 130.091 11.0953 129.775 10.956C129.471 10.8167 129.103 10.747 128.673 10.747ZM143.277 12.134C143.201 12.2733 143.049 12.419 142.821 12.571C142.606 12.723 142.334 12.818 142.004 12.856C141.966 12.6407 141.89 12.4127 141.776 12.172C141.675 11.9187 141.523 11.6907 141.32 11.488C141.118 11.2727 140.864 11.1017 140.56 10.975C140.256 10.8357 139.889 10.766 139.458 10.766C139.104 10.766 138.743 10.8357 138.375 10.975C138.021 11.1143 137.698 11.3423 137.406 11.659C137.115 11.9757 136.874 12.381 136.684 12.875C136.507 13.369 136.418 13.9707 136.418 14.68C136.418 15.44 136.52 16.105 136.722 16.675C136.925 17.2323 137.197 17.701 137.539 18.081C137.881 18.4483 138.274 18.727 138.717 18.917C139.173 19.0943 139.648 19.183 140.142 19.183C140.788 19.183 141.333 19.088 141.776 18.898C142.232 18.6953 142.619 18.4103 142.935 18.043C143.011 18.0557 143.087 18.1 143.163 18.176C143.239 18.252 143.29 18.3217 143.315 18.385C143.214 18.5623 143.056 18.765 142.84 18.993C142.638 19.2083 142.378 19.411 142.061 19.601C141.745 19.791 141.377 19.9493 140.959 20.076C140.541 20.2153 140.066 20.285 139.534 20.285C138.901 20.285 138.299 20.1773 137.729 19.962C137.172 19.7467 136.678 19.4237 136.247 18.993C135.829 18.5623 135.494 18.0367 135.24 17.416C135 16.7953 134.879 16.0733 134.879 15.25C134.879 14.528 135.012 13.8503 135.278 13.217C135.544 12.571 135.905 12.0073 136.361 11.526C136.83 11.032 137.381 10.6457 138.014 10.367C138.648 10.0757 139.332 9.93 140.066 9.93C140.674 9.93 141.181 10.0187 141.586 10.196C141.992 10.3607 142.315 10.5633 142.555 10.804C142.809 11.032 142.992 11.2727 143.106 11.526C143.22 11.7793 143.277 11.982 143.277 12.134ZM153.116 14.072C153.116 12.9953 152.894 12.21 152.451 11.716C152.008 11.2093 151.381 10.956 150.57 10.956C150.279 10.956 149.987 11.013 149.696 11.127C149.405 11.2283 149.126 11.374 148.86 11.564C148.607 11.7413 148.366 11.9503 148.138 12.191C147.91 12.419 147.707 12.666 147.53 12.932V19.848C147.353 19.9493 147.118 20.019 146.827 20.057C146.548 20.1077 146.282 20.133 146.029 20.133V5.655C146.244 5.541 146.479 5.45867 146.732 5.408C146.998 5.35733 147.264 5.332 147.53 5.332V11.83C147.707 11.6147 147.923 11.393 148.176 11.165C148.429 10.937 148.714 10.728 149.031 10.538C149.348 10.348 149.69 10.196 150.057 10.082C150.437 9.95533 150.842 9.892 151.273 9.892C152.299 9.892 153.11 10.2023 153.705 10.823C154.313 11.4437 154.617 12.3303 154.617 13.483V19.848C154.44 19.9493 154.205 20.019 153.914 20.057C153.635 20.1077 153.369 20.133 153.116 20.133V14.072ZM165.017 19.297C166.043 19.259 167.107 19.2083 168.209 19.145C169.311 19.0817 170.552 19.0057 171.933 18.917C171.908 19.2083 171.838 19.468 171.724 19.696C171.61 19.9113 171.483 20.057 171.344 20.133H163.459V6.643C163.89 6.415 164.409 6.301 165.017 6.301V19.297ZM172.308 10.861C172.409 10.7217 172.567 10.595 172.783 10.481C173.011 10.3543 173.258 10.291 173.524 10.291H174.132V7.555C174.334 7.39033 174.569 7.27 174.835 7.194C175.113 7.10533 175.379 7.061 175.633 7.061V10.291H179.357C179.344 10.5063 179.281 10.69 179.167 10.842C179.065 10.9813 178.932 11.051 178.768 11.051H175.633V17.283C175.633 17.6883 175.677 18.0177 175.766 18.271C175.867 18.5117 176 18.7017 176.165 18.841C176.329 18.9803 176.519 19.0753 176.735 19.126C176.95 19.1767 177.172 19.202 177.4 19.202C177.818 19.202 178.166 19.1197 178.445 18.955C178.723 18.7903 178.951 18.6193 179.129 18.442C179.306 18.4927 179.42 18.6003 179.471 18.765C179.407 18.8663 179.306 18.9993 179.167 19.164C179.027 19.3287 178.844 19.4933 178.616 19.658C178.388 19.81 178.115 19.943 177.799 20.057C177.482 20.171 177.127 20.228 176.735 20.228C176.38 20.228 176.044 20.1837 175.728 20.095C175.411 20.0063 175.132 19.8607 174.892 19.658C174.664 19.4553 174.48 19.183 174.341 18.841C174.201 18.499 174.132 18.0747 174.132 17.568V11.051H172.308V10.861ZM188.572 18.689C188.433 18.879 188.262 19.069 188.059 19.259C187.856 19.449 187.609 19.62 187.318 19.772C187.039 19.924 186.716 20.0507 186.349 20.152C185.982 20.2533 185.57 20.304 185.114 20.304C184.557 20.304 184.025 20.2027 183.518 20C183.011 19.7973 182.555 19.4997 182.15 19.107C181.757 18.7017 181.441 18.2077 181.2 17.625C180.972 17.0297 180.858 16.3457 180.858 15.573C180.858 14.813 180.997 14.091 181.276 13.407C181.567 12.7103 181.96 12.1023 182.454 11.583C182.948 11.0637 183.524 10.652 184.183 10.348C184.854 10.044 185.57 9.892 186.33 9.892C186.837 9.892 187.267 9.95533 187.622 10.082C187.989 10.196 188.306 10.3417 188.572 10.519V5.655C188.787 5.541 189.022 5.45867 189.275 5.408C189.541 5.35733 189.807 5.332 190.073 5.332V19.848C189.896 19.9493 189.661 20.019 189.37 20.057C189.091 20.1077 188.825 20.133 188.572 20.133V18.689ZM185.817 19.221C186.526 19.221 187.109 19.0563 187.565 18.727C188.034 18.385 188.369 17.9923 188.572 17.549V12.4C188.471 12.1973 188.338 12.001 188.173 11.811C188.021 11.6083 187.831 11.431 187.603 11.279C187.375 11.1143 187.109 10.9877 186.805 10.899C186.514 10.7977 186.184 10.747 185.817 10.747C185.399 10.747 184.987 10.8293 184.582 10.994C184.177 11.1587 183.809 11.412 183.48 11.754C183.163 12.0833 182.904 12.5077 182.701 13.027C182.511 13.5463 182.416 14.1543 182.416 14.851C182.416 15.649 182.517 16.3267 182.72 16.884C182.935 17.4287 183.201 17.8783 183.518 18.233C183.847 18.575 184.215 18.8283 184.62 18.993C185.025 19.145 185.424 19.221 185.817 19.221ZM195.46 19.221C195.32 19.4743 195.124 19.715 194.871 19.943C194.63 20.1583 194.402 20.3167 194.187 20.418C193.959 20.3167 193.724 20.1583 193.484 19.943C193.243 19.715 193.053 19.4743 192.914 19.221C193.053 18.9803 193.243 18.746 193.484 18.518C193.737 18.2773 193.971 18.1063 194.187 18.005C194.44 18.1063 194.687 18.2773 194.928 18.518C195.168 18.746 195.346 18.9803 195.46 19.221Z" fill="black"/>
</svg>
